<?xml version="1.0" encoding="utf-8"?>
<!-- Generator: Adobe Illustrator 16.0.0, SVG Export Plug-In . SVG Version: 6.00 Build 0)  -->
<!DOCTYPE svg PUBLIC "-//W3C//DTD SVG 1.1//EN" "http://www.w3.org/Graphics/SVG/1.1/DTD/svg11.dtd">
<svg version="1.1" id="Layer_1" xmlns="http://www.w3.org/2000/svg" xmlns:xlink="http://www.w3.org/1999/xlink" x="0px" y="0px"
	 width="528.278px" height="356.675px" viewBox="0 0 528.278 356.675" enable-background="new 0 0 528.278 356.675"
	 xml:space="preserve">
<path fill="#FFFFFF" d="M525.819,218.165V0H373.817c-20.04,0-40.08,6.579-55.369,19.736c-15.291,13.159-22.937,30.404-22.937,47.65
	v180.458H74.43c-18.478,0-35.75,5.344-51.792,16.035C7.554,274.953,0,286.99,0,299.969v1.715c0,7.643,1.95,14.808,5.849,21.484
	c3.897,6.678,9.236,12.509,16.037,17.474c6.822,4.962,14.862,8.865,24.103,11.734c9.233,2.867,18.961,4.299,29.173,4.299h283.834
	c9.259,0,17.762-1.146,25.539-3.435c7.796-2.289,15.817-5.541,24.078-9.74l94.858-57.851c8.77-6.885,15.082-13.933,18.982-21.204
	c3.896-7.246,5.824-15.068,5.824-23.485L525.819,218.165z"/>
</svg>
