<?xml version="1.0" encoding="utf-8"?>
<!-- Generator: Adobe Illustrator 16.0.0, SVG Export Plug-In . SVG Version: 6.00 Build 0)  -->
<!DOCTYPE svg PUBLIC "-//W3C//DTD SVG 1.1//EN" "http://www.w3.org/Graphics/SVG/1.1/DTD/svg11.dtd">
<svg version="1.1" id="Layer_1" xmlns="http://www.w3.org/2000/svg" xmlns:xlink="http://www.w3.org/1999/xlink" x="0px" y="0px"
	 width="346.755px" height="223.027px" viewBox="0 0 346.755 223.027" enable-background="new 0 0 346.755 223.027"
	 xml:space="preserve">
<path fill="#FFFFFF" d="M177.727,0c4.583,0,8.793,0.725,12.644,2.166c3.859,1.445,7.83,3.494,11.92,6.145l46.961,36.479
	c4.342,4.342,7.467,9.156,9.397,13.738h88.106l-1.438,164.5H190.731L163.282,69l-1.085-0.371H36.848
	c-9.148,0-17.699-3.369-25.641-10.109C3.739,51.535,0,43.945,0,35.76v-1.08c0-4.822,0.965-9.338,2.895-13.547
	c1.93-4.213,4.573-7.891,7.94-11.021c3.377-3.127,7.357-5.59,11.932-7.398C27.338,0.902,32.154,0,37.209,0H177.727z"/>
</svg>
