<?xml version="1.0" encoding="utf-8"?>
<!-- Generator: Adobe Illustrator 16.0.0, SVG Export Plug-In . SVG Version: 6.00 Build 0)  -->
<!DOCTYPE svg PUBLIC "-//W3C//DTD SVG 1.1//EN" "http://www.w3.org/Graphics/SVG/1.1/DTD/svg11.dtd">
<svg version="1.1" id="Layer_1" xmlns="http://www.w3.org/2000/svg" xmlns:xlink="http://www.w3.org/1999/xlink" x="0px" y="0px"
	 width="261.532px" height="89.945px" viewBox="0 0 261.532 89.945" enable-background="new 0 0 261.532 89.945"
	 xml:space="preserve">
<path fill="#FFFFFF" d="M37.209,89.945c-5.055,0-9.872-0.902-14.442-2.713c-4.575-1.809-8.555-4.271-11.932-7.398
	c-3.367-3.132-6.01-6.809-7.94-11.021C0.965,64.603,0,60.086,0,55.265v-1.08C0,46,3.739,38.409,11.207,31.426
	c7.942-6.742,16.493-10.111,25.641-10.111h125.349l1.085-0.37L190.731,0h69.363l1.438,16.973c0,5.308-0.955,10.24-2.884,14.811
	c-1.931,4.583-5.056,9.029-9.397,13.371L202.29,81.634c-4.09,2.65-8.061,4.699-11.92,6.144c-3.851,1.442-8.061,2.167-12.644,2.167
	H37.209z"/>
</svg>
