<?xml version="1.0" encoding="utf-8"?>
<!-- Generator: Adobe Illustrator 16.0.0, SVG Export Plug-In . SVG Version: 6.00 Build 0)  -->
<!DOCTYPE svg PUBLIC "-//W3C//DTD SVG 1.1//EN" "http://www.w3.org/Graphics/SVG/1.1/DTD/svg11.dtd">
<svg version="1.1" id="Layer_1" xmlns="http://www.w3.org/2000/svg" xmlns:xlink="http://www.w3.org/1999/xlink" x="0px" y="0px"
	 width="24.281px" height="24.281px" viewBox="0 0 24.281 24.281" enable-background="new 0 0 24.281 24.281" xml:space="preserve">
<g>
	<path fill="#F48C82" d="M19.833,10.978l-4.594,3.265c-0.809-0.052-1.33-0.202-1.564-0.449c-0.144-0.104-0.261-0.238-0.352-0.401
		s-0.163-0.342-0.215-0.538c-0.026-0.078-0.046-0.156-0.059-0.234c-0.013-0.079-0.019-0.163-0.019-0.254
		c0-0.273,0.075-0.541,0.225-0.801c0.149-0.261,0.381-0.561,0.694-0.899l2.092-1.603H9.199L8.573,9.883H3.842
		C3.985,9.192,4.213,8.658,4.526,8.28l2.209-2.541C7.152,5.282,7.661,5.054,8.26,5.054h10.106c0.287,0,0.551,0.052,0.792,0.156
		c0.241,0.104,0.452,0.248,0.636,0.43c0.182,0.183,0.325,0.397,0.43,0.645c0.104,0.248,0.156,0.508,0.156,0.782v2.522
		C20.38,10.072,20.198,10.534,19.833,10.978z M4.448,13.304l4.614-3.246c0.364,0.026,0.671,0.076,0.919,0.147
		c0.247,0.071,0.45,0.163,0.606,0.273c0.156,0.111,0.28,0.241,0.371,0.391c0.091,0.149,0.169,0.323,0.234,0.518
		c0.04,0.091,0.062,0.183,0.069,0.273c0.006,0.091,0.01,0.176,0.01,0.254c0,0.287-0.079,0.558-0.234,0.812
		c-0.156,0.254-0.385,0.557-0.685,0.91L8.26,15.219h6.822l0.626-0.82h4.73c-0.144,0.717-0.371,1.258-0.684,1.623l-2.209,2.521
		c-0.404,0.457-0.906,0.684-1.506,0.684H5.914c-0.273,0-0.534-0.051-0.782-0.156c-0.248-0.104-0.463-0.244-0.646-0.42
		c-0.182-0.176-0.326-0.387-0.43-0.635c-0.104-0.248-0.156-0.509-0.156-0.782v-2.541C3.901,14.236,4.083,13.773,4.448,13.304z"/>
	<circle fill="none" stroke="#F48C82" stroke-miterlimit="10" cx="12.14" cy="12.141" r="11.64"/>
</g>
</svg>
