<?xml version="1.0" encoding="utf-8"?>
<!-- Generator: Adobe Illustrator 16.0.0, SVG Export Plug-In . SVG Version: 6.00 Build 0)  -->
<!DOCTYPE svg PUBLIC "-//W3C//DTD SVG 1.1//EN" "http://www.w3.org/Graphics/SVG/1.1/DTD/svg11.dtd">
<svg version="1.1" id="Layer_1" xmlns="http://www.w3.org/2000/svg" xmlns:xlink="http://www.w3.org/1999/xlink" x="0px" y="0px"
	 width="90.164px" height="25.983px" viewBox="0 0 90.164 25.983" enable-background="new 0 0 90.164 25.983" xml:space="preserve">
<path fill="#FFFFFF" d="M29.942,25.983c-3.733,0-6.774-1.246-9.122-3.739c-2.349-2.493-3.522-5.569-3.522-9.23
	c0-3.637,1.179-6.702,3.541-9.195c2.36-2.493,5.395-3.739,9.104-3.739c3.516,0,6.49,1.205,8.923,3.613
	c2.433,2.409,3.649,5.516,3.649,9.321c0,3.829-1.21,6.949-3.63,9.356C36.463,24.778,33.482,25.983,29.942,25.983z M29.942,25.151
	c3.299,0,6.082-1.131,8.345-3.396c2.264-2.264,3.396-5.177,3.396-8.742c0-3.564-1.132-6.467-3.396-8.707
	c-2.264-2.241-5.046-3.361-8.345-3.361c-3.468,0-6.304,1.163-8.508,3.487c-2.204,2.324-3.305,5.185-3.305,8.581
	c0,3.419,1.101,6.298,3.305,8.634C23.638,23.985,26.474,25.151,29.942,25.151z"/>
<path fill="#FFFFFF" d="M27.034,7.557c-0.533,0-0.969-0.167-1.307-0.5c-0.338-0.333-0.508-0.743-0.508-1.226
	c0-0.479,0.171-0.888,0.512-1.226c0.341-0.338,0.776-0.507,1.304-0.507c0.508,0,0.937,0.162,1.286,0.486s0.523,0.74,0.523,1.247
	c0,0.507-0.174,0.921-0.523,1.243S27.542,7.557,27.034,7.557z M27.034,7.401c0.464,0,0.853-0.146,1.166-0.44
	c0.314-0.294,0.471-0.671,0.471-1.131S28.513,4.993,28.196,4.7c-0.316-0.293-0.704-0.44-1.162-0.44
	c-0.488,0-0.885,0.152-1.191,0.455c-0.306,0.303-0.459,0.675-0.459,1.117s0.153,0.813,0.459,1.117
	C26.149,7.25,26.546,7.401,27.034,7.401z"/>
<path fill="#FFFFFF" d="M14.515,0.079l0.119,0.06l-0.04,0.139L5.143,9.967l10.782,13.82v0.119l-0.119,0.078h-3.792
	c-0.013,0-0.033-0.016-0.06-0.049s-0.046-0.057-0.06-0.07c-0.066-0.197-0.122-0.38-0.168-0.545c-0.046-0.166-0.1-0.332-0.159-0.497
	s-0.129-0.327-0.208-0.486c-0.079-0.159-0.185-0.324-0.317-0.497L2.899,11.317v9.471c0,0.212,0.003,0.454,0.01,0.725
	c0.006,0.271,0.02,0.55,0.04,0.834s0.053,0.556,0.099,0.814c0.046,0.258,0.116,0.479,0.208,0.665v0.119
	c-0.053,0.026-0.099,0.039-0.139,0.039H0.04L0,23.946v-0.119c0.08-0.172,0.146-0.391,0.199-0.655
	c0.053-0.265,0.099-0.54,0.139-0.824c0.04-0.284,0.066-0.565,0.079-0.844s0.02-0.517,0.02-0.715V3.276
	c0-0.198-0.007-0.437-0.02-0.715c-0.013-0.278-0.04-0.559-0.079-0.844c-0.04-0.285-0.086-0.559-0.139-0.824
	C0.146,0.628,0.08,0.41,0,0.238V0.119h0.04l0.06-0.04h3.018c0.04,0,0.086,0.013,0.139,0.04v0.119
	C3.164,0.423,3.094,0.645,3.048,0.903S2.969,1.433,2.949,1.717S2.916,2.28,2.909,2.551c-0.007,0.271-0.01,0.513-0.01,0.725v7.347
	l7.505-8.2c0.305-0.318,0.556-0.672,0.755-1.063c0.198-0.391,0.357-0.797,0.477-1.221l0.119-0.06H14.515z"/>
<path fill="#FFFFFF" d="M43.524,23.946l-0.06-0.039v-0.119c0.185-0.213,0.377-0.428,0.576-0.646
	c0.198-0.218,0.357-0.459,0.477-0.725L54.584,1.231c-0.106-0.199-0.232-0.384-0.378-0.556c-0.146-0.172-0.291-0.344-0.437-0.516
	v-0.02l0.059-0.06h3.217l0.08,0.06L66.1,20.868c0.463,1.047,1.078,2.032,1.847,2.959l0.04,0.119c-0.014,0-0.033,0.006-0.061,0.02
	c-0.025,0.014-0.046,0.02-0.059,0.02c-0.676,0-1.338-0.01-1.986-0.029s-1.311-0.023-1.985-0.01c-0.026-0.463-0.065-0.916-0.119-1.36
	c-0.053-0.443-0.172-0.877-0.357-1.3L57.939,8.637H52.32l-6.136,13.145c-0.106,0.225-0.202,0.46-0.288,0.705
	c-0.086,0.244-0.129,0.499-0.129,0.764c0,0.106,0.006,0.209,0.02,0.309c0.013,0.099,0.033,0.201,0.06,0.307l-0.02,0.08l-0.04,0.039
	L43.524,23.946z M57.521,7.625c-0.383-0.86-0.794-1.718-1.23-2.571c-0.438-0.854-0.774-1.744-1.013-2.671l-2.521,5.242H57.521z"/>
<path fill="#FFFFFF" d="M85.519,0.139c0.265-0.066,0.539-0.096,0.823-0.089c0.285,0.007,0.561,0.01,0.824,0.01
	c0.133,0,0.302,0,0.507,0s0.367,0.02,0.486,0.06c0,0.013-0.103,0.162-0.308,0.447c-0.205,0.284-0.473,0.655-0.805,1.112
	c-0.33,0.457-0.715,0.973-1.151,1.549c-0.437,0.576-0.884,1.171-1.341,1.787c-0.456,0.616-0.909,1.225-1.359,1.827
	c-0.45,0.602-0.86,1.151-1.23,1.648c-0.371,0.496-0.686,0.917-0.943,1.261s-0.428,0.563-0.507,0.655l7.604,11.099
	c0.291,0.424,0.6,0.827,0.924,1.212c0.324,0.383,0.698,0.721,1.121,1.012l-0.099,0.139h-4.21c-0.013,0-0.033-0.006-0.059-0.02
	c-0.027-0.014-0.047-0.02-0.061-0.02l-0.059-0.1c-0.066-0.463-0.189-0.93-0.367-1.399c-0.18-0.47-0.4-0.897-0.666-1.28l-5.798-8.419
	l-6.036,8.082c-0.146,0.186-0.305,0.417-0.477,0.695c-0.172,0.277-0.338,0.568-0.496,0.873s-0.291,0.605-0.396,0.903
	c-0.106,0.298-0.16,0.565-0.16,0.804c-0.225,0.054-0.459,0.084-0.704,0.09c-0.245,0.007-0.479,0.01-0.705,0.01
	c-0.212,0-0.427,0.004-0.646,0.01c-0.219,0.007-0.427-0.016-0.625-0.068c0-0.014,0.125-0.193,0.377-0.537s0.582-0.797,0.992-1.359
	c0.411-0.563,0.885-1.201,1.42-1.916c0.537-0.715,1.086-1.45,1.648-2.205c0.563-0.754,1.122-1.498,1.678-2.233
	c0.557-0.734,1.063-1.406,1.52-2.015c0.456-0.609,0.844-1.125,1.161-1.549c0.317-0.423,0.522-0.695,0.616-0.814l-6.215-9.054
	c-0.279-0.41-0.58-0.791-0.904-1.142c-0.324-0.351-0.678-0.685-1.063-1.003l-0.02-0.139L69.853,0h4.229l0.099,0.04l0.079,0.099
	c0.053,0.49,0.176,0.96,0.367,1.41c0.192,0.45,0.421,0.874,0.686,1.271l4.349,6.374l4.328-5.798
	c0.133-0.185,0.288-0.417,0.467-0.695s0.348-0.566,0.507-0.864c0.158-0.298,0.291-0.596,0.396-0.894S85.519,0.377,85.519,0.139z"/>
<path fill="#FFFFFF" d="M21.341,5.853c0.35-0.244,0.75-0.335,1.199-0.276s0.805,0.249,1.067,0.567l3.587,4.346
	c0.581,0.699,0.871,1.472,0.871,2.318c0,0.846-0.285,1.619-0.853,2.318l-3.68,4.515l-0.01,0.009
	c-0.269,0.318-0.625,0.508-1.068,0.567c-0.443,0.06-0.843-0.03-1.199-0.268c-0.356-0.243-0.567-0.565-0.632-0.964
	c-0.065-0.4,0.033-0.766,0.295-1.096l0.01-0.01l4.149-5.067l-4.056-4.889V7.914c-0.268-0.319-0.373-0.68-0.314-1.082
	C20.769,6.429,20.979,6.103,21.341,5.853z M28.825,11.444h3.166l4.346-5.282c0.306-0.4,0.74-0.6,1.302-0.6
	c0.443,0,0.822,0.144,1.138,0.431c0.315,0.287,0.474,0.634,0.474,1.04c0,0.332-0.11,0.625-0.328,0.881l-4.019,4.907l3.859,4.927
	c0.325,0.293,0.487,0.643,0.487,1.049c0,0.412-0.158,0.76-0.474,1.043c-0.315,0.285-0.695,0.428-1.138,0.428
	c-0.524,0-0.952-0.188-1.283-0.563l-0.019,0.009l-4.187-5.329h-0.094c-0.893,0-1.655-0.287-2.285-0.862
	C29.14,12.949,28.825,12.256,28.825,11.444z"/>
</svg>
