<?xml version="1.0" encoding="utf-8"?>
<!-- Generator: Adobe Illustrator 16.0.0, SVG Export Plug-In . SVG Version: 6.00 Build 0)  -->
<!DOCTYPE svg PUBLIC "-//W3C//DTD SVG 1.1//EN" "http://www.w3.org/Graphics/SVG/1.1/DTD/svg11.dtd">
<svg version="1.1" id="Layer_1" xmlns="http://www.w3.org/2000/svg" xmlns:xlink="http://www.w3.org/1999/xlink" x="0px" y="0px"
	 width="372.221px" height="192.9px" viewBox="0 0 372.221 192.9" enable-background="new 0 0 372.221 192.9" xml:space="preserve">
<path fill="#FFFFFF" d="M372.221,33.369H234.55L202.29,8.309c-4.09-2.648-8.061-4.699-11.92-6.143C186.52,0.723,182.31,0,177.727,0
	H37.21c-5.056,0-9.872,0.902-14.443,2.711c-4.574,1.81-8.555,4.271-11.932,7.398c-3.367,3.133-6.01,6.81-7.939,11.021
	C0.966,25.341,0,29.857,0,34.678v1.082c0,8.184,3.739,15.775,11.207,22.758c5.837,4.955,12.004,8.081,18.494,9.394v57.599
	c-5.685,1.531-11.116,4.481-16.288,8.872c-7.468,6.982-11.207,14.574-11.207,22.758v1.082c0,4.82,0.966,9.337,2.896,13.547
	c1.93,4.212,4.572,7.889,7.939,11.021c3.377,3.127,7.357,5.589,11.932,7.398c4.571,1.809,9.388,2.711,14.443,2.711h140.517
	c4.583,0,8.793-0.723,12.644-2.166c3.859-1.443,7.83-3.494,11.92-6.143l32.261-25.061h135.464V33.369z"/>
</svg>
